PathFileType	4	(X/Y/Z)	C:/Users/opensim2020/Desktop/walking_exp_matlab/subject01_walking06_straight_01.trc																																																																																																																															
DataRate	CameraRate	NumFrames	NumMarkers	Units	OrigDataRate	OrigDataStartFrame	OrigNumFrames																																																																																																																											
100	100	8	43	mm	100	860	251																																																																																																																											
Frame#	Time	LFHD			RFHD			LBHD			RBHD			C7			T10			CLAV			STRN			RBAK			LSHO			LUPA			LELB			LFRM			LWRA			LWRB			LFIN			RSHO			RUPA			RELB			RFRM			RWRA			RWRB			RFIN			LASI			RASI			LPSI			RPSI			LTHI			LKNE			LTIB			LANK			LHEE			LTOE			RTHI			RKNE			RTIB			RANK			RHEE			RTOE			*39			*40			*41			*42		
		X1	Y1	Z1	X2	Y2	Z2	X3	Y3	Z3	X4	Y4	Z4	X5	Y5	Z5	X6	Y6	Z6	X7	Y7	Z7	X8	Y8	Z8	X9	Y9	Z9	X10	Y10	Z10	X11	Y11	Z11	X12	Y12	Z12	X13	Y13	Z13	X14	Y14	Z14	X15	Y15	Z15	X16	Y16	Z16	X17	Y17	Z17	X18	Y18	Z18	X19	Y19	Z19	X20	Y20	Z20	X21	Y21	Z21	X22	Y22	Z22	X23	Y23	Z23	X24	Y24	Z24	X25	Y25	Z25	X26	Y26	Z26	X27	Y27	Z27	X28	Y28	Z28	X29	Y29	Z29	X30	Y30	Z30	X31	Y31	Z31	X32	Y32	Z32	X33	Y33	Z33	X34	Y34	Z34	X35	Y35	Z35	X36	Y36	Z36	X37	Y37	Z37	X38	Y38	Z38	X39	Y39	Z39	X40	Y40	Z40	X41	Y41	Z41	X42	Y42	Z42	X43	Y43	Z43
																																																																																																																																		
95	0.94	-592.1059	1661.88123	1415.37268	-564.44012	1672.1322	1526.02637	-692.36407	1590.17175	1438.7345	-665.58893	1599.24023	1556.28613	-701.5788	1419.03333	1474.66602	-735.0647	1124.96997	1479.68359	-557.72864	1350.63379	1465.38293	-516.25385	1195.15564	1458.35181	-753.23187	1224.46021	1553.5498	-627.33289	1382.45422	1308.70447	-672.29114	1199.2937	1225.91931	-698.83832	1053.09045	1225.43604	-679.01569	941.72473	1200.45898	-627.34973	811.78351	1221.02112	-680.04974	819.43445	1191.58179	-648.63098	738.50842	1189.1593	-612.62726	1376.19092	1619.81177	-653.96216	1176.20508	1724.94788	-639.95947	1051.10144	1732.93225	-586.68744	940.30011	1758.44226	-485.31339	844.84644	1731.77026	-526.43237	834.49402	1771.6759	-471.7124	770.80139	1770.04089	-555.96844	925.20795	1365.20923	-560.43506	916.77991	1582.55359	-742.88824	933.94055	1411.49646	-744.3606	935.21106	1556.53394	-519.33795	604.6319	1306.26208	-498.70056	472.61188	1326.88684	-523.53558	283.71854	1314.84863	-525.7113	66.47528	1369.77771	-569.02673	37.62098	1423.14111	-378.09824	33.78894	1360.3761	-645.2146	588.89496	1652.03748	-666.80945	430.12582	1642.32275	-813.65808	327.27237	1639.80786	-955.33087	174.25656	1600.29858	-1004.0556	182.08595	1542.30872	-906.61761	36.52441	1599.05481	-587.90094	1701.31531	1506.24939	1973.15393	1023.48431	-3101.74414	2012.56604	1021.98944	-3140.5918	NaN	NaN	NaN
96	0.95	-582.75598	1662.76282	1412.78821	-555.27893	1673.17419	1523.41333	-682.96301	1590.84033	1436.13879	-656.32416	1600.14307	1553.71777	-691.82166	1419.89661	1472.46094	-725.27142	1125.82507	1477.80383	-548.06244	1351.59863	1463.33081	-506.53091	1196.06958	1456.60815	-743.44287	1225.54883	1551.91052	-617.32098	1383.32495	1306.65503	-661.06323	1200.09827	1223.59998	-686.19122	1053.42932	1223.24304	-664.65826	942.16272	1198.70996	-611.12805	813.03326	1219.9718	-663.63055	819.76453	1190.26526	-630.93732	739.46344	1188.28247	-602.96643	1377.39722	1617.6416	-645.34662	1177.72083	1723.19141	-632.84186	1052.3606	1730.39575	-581.15002	940.81219	1756.06433	-481.1615	843.82892	1729.62537	-522.5069	834.1767	1769.56946	-468.81302	769.5127	1767.88306	-546.36145	926.07898	1363.21631	-551.30432	917.48248	1580.31177	-733.53644	934.91443	1410.12427	-734.76135	935.62488	1555.35596	-513.32782	604.1889	1304.62146	-493.22763	472.1871	1325.30591	-521.65265	283.7489	1314.66711	-525.46942	66.40869	1369.75586	-568.94104	37.67203	1423.12537	-377.81305	33.47648	1360.3009	-627.95685	588.04968	1651.24316	-646.32617	429.50507	1641.36475	-795.25226	330.38629	1638.9823	-941.28589	182.12947	1598.99817	-989.15948	192.80688	1540.95471	-899.75159	41.92655	1598.49512	-578.73334	1702.29761	1503.54846	1973.13257	1023.28253	-3101.93164	2012.51355	1021.93701	-3140.7522	NaN	NaN	NaN
97	0.96	-573.43805	1663.6106	1410.31592	-546.05585	1674.18018	1520.98254	-673.58197	1591.62256	1433.65283	-647.04993	1601.07788	1551.24573	-682.43115	1420.80603	1470.22607	-715.62177	1126.76331	1475.89197	-538.50122	1352.59863	1461.44116	-496.87344	1196.99622	1455.06995	-733.91107	1226.66992	1550.17883	-607.2428	1384.19128	1304.70801	-649.74945	1200.71497	1221.45117	-673.70801	1053.64832	1221.03027	-650.11121	942.53156	1196.87109	-594.52258	814.43427	1218.99817	-646.86115	820.14539	1188.88208	-612.745	740.27911	1187.41211	-593.41095	1378.57202	1615.53088	-636.71783	1179.29102	1721.64026	-625.76794	1053.57373	1727.90039	-575.80688	941.25848	1753.7373	-477.09808	842.80127	1727.40088	-518.53827	833.87799	1767.47339	-465.95056	768.26117	1765.62439	-537.06696	926.74921	1361.45532	-542.49847	918.1792	1578.1759	-723.88837	935.60376	1408.87756	-725.17499	935.74976	1553.99878	-507.77728	603.86694	1303.16858	-488.39233	471.8761	1323.91211	-520.03912	283.80292	1314.6217	-525.32819	66.44217	1369.78528	-568.9458	37.75773	1423.08716	-377.67679	33.27686	1360.33057	-610.8584	587.37158	1650.11548	-625.57111	429.06284	1640.06519	-776.46112	333.82343	1638.35266	-926.02173	190.33832	1597.32483	-973.47351	203.2186	1539.04846	-890.74921	48.19755	1598.46814	-569.61377	1703.28027	1501.00781	1973.14246	1023.27148	-3101.78101	2012.5343	1021.98944	-3140.49365	NaN	NaN	NaN
98	0.97	-564.07385	1664.54102	1408.00269	-536.91888	1675.2605	1518.63611	-664.13806	1592.35815	1431.2655	-637.83105	1602.05383	1548.93652	-672.93158	1421.65405	1468.09619	-706.17139	1127.672	1474.00818	-528.93146	1353.61255	1459.63525	-487.37473	1197.93481	1453.68823	-724.44934	1227.80627	1548.29822	-597.17737	1384.97046	1302.85364	-637.97137	1201.43445	1219.03015	-661.15021	1053.89087	1218.83142	-635.39978	942.96368	1195.14478	-577.64337	816.00238	1217.97119	-629.91229	820.64844	1187.60486	-594.37177	741.60895	1186.58179	-584.06201	1379.69922	1613.64502	-628.04346	1180.7572	1720.15637	-618.84875	1054.79224	1725.47705	-570.45435	941.69641	1751.48865	-473.08997	841.79034	1725.18079	-514.67365	833.50079	1765.36292	-463.15677	766.95795	1763.24585	-527.76959	927.35999	1359.82813	-531.41455	920.24738	1577.54358	-714.66156	936.34546	1407.57739	-715.83685	935.89423	1552.7616	-502.4671	603.48859	1301.90503	-483.87622	471.41159	1322.78125	-518.24243	283.86032	1314.57654	-525.03809	66.46569	1369.87805	-568.91895	37.83871	1423.22205	-377.58267	33.19254	1360.33984	-593.73145	586.97717	1648.62976	-604.76593	428.99545	1638.52991	-757.1814	337.58508	1637.66016	-909.83276	198.39607	1595.40039	-957.09705	212.98895	1536.93506	-879.95392	54.71499	1599.09595	-560.44946	1704.28943	1498.60962	1972.99866	1023.75201	-3102.10718	2012.5083	1021.90167	-3140.65039	NaN	NaN	NaN
99	0.98	-554.70355	1665.35913	1405.80127	-527.74908	1676.31702	1516.52344	-654.76556	1593.17346	1429.04688	-628.64459	1603.07056	1546.7146	-663.33582	1422.63	1466.15308	-696.78113	1128.69543	1472.10876	-519.48639	1354.52502	1458.07043	-477.94217	1198.82703	1452.42834	-715.10248	1228.9165	1546.26758	-587.15686	1385.77356	1301.1228	-626.5127	1202.14709	1216.81311	-648.39282	1054.11792	1216.60962	-620.37555	943.40643	1193.17664	-560.53308	817.70496	1216.92163	-612.70074	821.2663	1186.25769	-575.42932	742.82153	1185.65808	-574.71552	1380.82947	1611.85229	-619.46423	1182.26526	1718.7561	-611.86475	1055.91504	1723.15381	-565.16321	942.17639	1749.27881	-469.16388	840.82294	1722.98535	-510.72488	833.30353	1763.34497	-460.35745	765.68945	1760.78223	-517.56409	928.22406	1357.94836	-522.2204	921.37323	1576.20117	-705.65167	937.10229	1406.36096	-707.02216	936.25311	1551.63293	-497.32248	603.17664	1300.8324	-479.48502	470.90875	1321.89063	-516.15411	283.74191	1314.59985	-524.80133	66.74349	1370.01416	-568.80084	37.80915	1423.34155	-377.47583	33.10469	1360.3208	-576.81207	587.37494	1647.01233	-584.01184	429.58304	1636.78162	-737.664	341.46021	1636.58679	-892.50995	205.46347	1593.33167	-939.46924	221.29344	1534.44849	-867.74084	60.69938	1599.46362	-551.18213	1705.34619	1496.43823	1973.20459	1023.3399	-3101.88794	2012.5426	1021.97498	-3140.65991	NaN	NaN	NaN
100	0.99	-545.284	1666.25867	1403.81702	-518.60541	1677.35706	1514.49756	-645.23639	1593.89893	1426.97021	-619.44714	1604.08264	1544.65137	-654.02954	1423.76331	1464.26184	-687.59033	1129.7981	1470.1687	-510.08035	1355.47095	1456.6394	-468.61832	1199.69592	1451.23669	-705.78931	1229.95117	1544.11194	-577.16492	1386.57031	1299.48901	-614.81061	1202.83264	1214.70508	-635.81702	1054.30957	1214.40283	-605.45691	943.91254	1191.42627	-543.2467	819.64398	1215.92651	-595.2597	821.94904	1184.86658	-556.36444	744.31104	1184.87805	-565.44476	1381.89709	1610.23975	-611.0191	1183.62939	1717.2666	-604.90564	1057.09387	1720.90967	-559.9118	942.69098	1747.13354	-465.30896	839.9386	1720.78821	-506.88617	833.05554	1761.2688	-457.58063	764.51642	1758.33057	-509.27197	928.5658	1356.79089	-513.11188	922.56274	1574.97278	-696.76294	937.77563	1405.15271	-697.87122	936.05652	1550.21155	-492.07535	602.73816	1299.94287	-475.35181	470.40744	1321.10181	-513.50372	283.52158	1314.50867	-524.28064	66.6402	1369.98743	-568.90424	37.88779	1423.19922	-377.39722	33.00034	1360.3728	-560.23932	587.96765	1645.48059	-563.57526	430.70679	1634.9917	-718.06183	345.37509	1635.15918	-875.0155	212.13066	1591.19348	-921.3999	227.9688	1531.41028	-853.80096	66.94394	1599.84741	-542.11768	1706.38123	1494.32764	1973.21838	1023.37463	-3101.73071	2012.50647	1022.02368	-3140.61841	NaN	NaN	NaN
101	1	-535.97864	1667.18323	1401.93945	-509.46164	1678.43311	1512.67615	-635.89886	1594.74048	1425.03186	-610.34857	1605.07227	1542.71521	-644.34406	1424.64905	1462.45349	-678.50854	1130.90259	1468.28735	-500.6843	1356.3562	1455.29321	-459.43634	1200.4353	1450.08203	-696.61652	1230.99597	1541.89856	-567.16937	1387.31116	1297.96826	-603.12567	1203.59387	1212.74121	-623.13965	1054.61536	1212.24194	-590.3894	944.59039	1189.63818	-525.84277	821.70966	1214.82288	-577.68158	822.85327	1183.51245	-537.21326	746.2428	1183.86707	-556.34851	1382.92346	1608.7627	-602.78534	1184.85364	1715.724	-597.88647	1058.23572	1718.84412	-554.51971	943.37616	1745.25977	-461.51862	839.15753	1718.68372	-503.06079	832.8916	1759.41052	-454.7915	763.46814	1755.90833	-499.81366	929.45886	1355.68518	-504.13275	923.74933	1573.7865	-687.97083	938.36096	1404.06287	-688.87714	936.1228	1549.05774	-486.9147	602.46783	1299.34717	-471.3688	469.89636	1320.61108	-510.495	283.29608	1314.34558	-524.42493	67.04056	1370.55029	-568.87494	38.01884	1423.2926	-377.27362	32.92588	1360.50427	-544.10156	589.46075	1643.776	-543.21375	432.45856	1633.21289	-697.93427	348.62286	1633.4718	-857.06848	217.62361	1588.70996	-903.05365	233.17813	1528.3811	-837.23199	72.73133	1600.4823	-532.99591	1707.35205	1492.4093	1973.11279	1023.78973	-3102.02148	2012.5343	1022.02643	-3140.49561	NaN	NaN	NaN
102	1.01	-526.72778	1667.98853	1400.17627	-500.36853	1679.36023	1510.98596	-626.6911	1595.63989	1423.16516	-601.24384	1605.98743	1540.88635	-634.86548	1425.59216	1460.70532	-669.61639	1132.03467	1466.44031	-491.3364	1357.16357	1454.10498	-450.28394	1201.12683	1449.0083	-687.53546	1231.96106	1539.7168	-557.18414	1387.98999	1296.55591	-591.43201	1204.3468	1210.98071	-610.32202	1054.86768	1210.06836	-575.25311	945.34033	1187.95801	-508.30914	824.01556	1213.79993	-560.14606	823.97827	1182.37024	-517.80328	748.25842	1182.94177	-547.32086	1383.94092	1607.2832	-594.74194	1185.94189	1714.01587	-590.86487	1059.41956	1716.90295	-549.34253	943.95038	1743.13208	-457.63889	838.4151	1716.63574	-499.15366	832.83289	1757.66614	-452.02194	762.41071	1753.52588	-491.16962	929.99573	1354.55188	-495.08582	925.03986	1572.65918	-679.2478	938.92352	1403.11707	-679.96246	936.38763	1548.11389	-481.75427	602.20923	1299.15601	-467.27597	469.32526	1320.2312	-507.55554	283.0654	1314.23279	-524.11261	66.94418	1370.64587	-568.77216	38.17574	1423.43933	-377.16934	32.84594	1360.62854	-528.29523	591.05432	1642.19617	-522.89392	434.53568	1631.20215	-677.53796	351.08377	1631.55127	-838.61444	222.59836	1586.24707	-884.41028	237.12619	1525.4353	-818.43311	77.65579	1600.30151	-523.92792	1708.271	1490.5918	1973.06152	1023.4361	-3101.93457	2012.53345	1021.95825	-3140.59326	NaN	NaN	NaN
